<svg width="18" height="19" viewBox="0 0 18 19" fill="none" xmlns="http://www.w3.org/2000/svg">
    <g id="search (2) 1">
        <g id="layer1">
            <path id="circle2017" d="M8.20346 2.19164C4.48504 2.19164 1.45605 5.22063 1.45605 8.93906C1.45605 12.6575 4.48504 15.6924 8.20346 15.6924C9.7917 15.6924 11.2524 15.1357 12.4069 14.2116L15.2174 17.0207C15.3593 17.1567 15.5487 17.2317 15.7452 17.2297C15.9416 17.2277 16.1295 17.1488 16.2685 17.01C16.4075 16.8711 16.4867 16.6834 16.4889 16.487C16.4912 16.2905 16.4165 16.1009 16.2807 15.9589L13.4702 13.1484C14.3951 11.9921 14.9523 10.5291 14.9523 8.93906C14.9523 5.22063 11.9219 2.19164 8.20346 2.19164ZM8.20346 3.69141C11.1113 3.69141 13.4511 6.03117 13.4511 8.93906C13.4511 11.8469 11.1113 14.1926 8.20346 14.1926C5.29557 14.1926 2.9558 11.8469 2.9558 8.93906C2.9558 6.03117 5.29557 3.69141 8.20346 3.69141Z" fill="#B100CE"/>
        </g>
    </g>
</svg>
